<?xml version="1.0" encoding="utf-8" standalone="no"?>
<!DOCTYPE svg PUBLIC "-//W3C//DTD SVG 1.1//EN"
  "http://www.w3.org/Graphics/SVG/1.1/DTD/svg11.dtd">
<!-- Created with matplotlib (https://matplotlib.org/) -->
<svg height="222.48pt" version="1.1" viewBox="0 0 360 222.48" width="360pt" xmlns="http://www.w3.org/2000/svg" xmlns:xlink="http://www.w3.org/1999/xlink">
 <metadata>
  <rdf:RDF xmlns:cc="http://creativecommons.org/ns#" xmlns:dc="http://purl.org/dc/elements/1.1/" xmlns:rdf="http://www.w3.org/1999/02/22-rdf-syntax-ns#">
   <cc:Work>
    <dc:type rdf:resource="http://purl.org/dc/dcmitype/StillImage"/>
    <dc:date>2020-08-24T12:32:09.859239</dc:date>
    <dc:format>image/svg+xml</dc:format>
    <dc:creator>
     <cc:Agent>
      <dc:title>Matplotlib v3.3.0, https://matplotlib.org/</dc:title>
     </cc:Agent>
    </dc:creator>
   </cc:Work>
  </rdf:RDF>
 </metadata>
 <defs>
  <style type="text/css">*{stroke-linecap:butt;stroke-linejoin:round;}</style>
 </defs>
 <g id="figure_1">
  <g id="patch_1">
   <path d="M 0 222.48 
L 360 222.48 
L 360 0 
L 0 0 
z
" style="fill:#ffffff;"/>
  </g>
  <g id="axes_1">
   <g id="patch_2">
    <path d="M 42.764615 184.799291 
L 356.99976 184.799291 
L 356.99976 3.00024 
L 42.764615 3.00024 
z
" style="fill:#eaeaf2;"/>
   </g>
   <g id="matplotlib.axis_1">
    <g id="xtick_1">
     <g id="line2d_1">
      <path clip-path="url(#pc931ce0cc7)" d="M 43.356395 184.799291 
L 43.356395 3.00024 
" style="fill:none;stroke:#ffffff;stroke-linecap:round;"/>
     </g>
     <g id="text_1">
      <!-- 0 -->
      <g style="fill:#262626;" transform="translate(40.297879 202.172885)scale(0.11 -0.11)">
       <defs>
        <path d="M 4.15625 35.296875 
Q 4.15625 48 6.765625 55.734375 
Q 9.375 63.484375 14.515625 67.671875 
Q 19.671875 71.875 27.484375 71.875 
Q 33.25 71.875 37.59375 69.546875 
Q 41.9375 67.234375 44.765625 62.859375 
Q 47.609375 58.5 49.21875 52.21875 
Q 50.828125 45.953125 50.828125 35.296875 
Q 50.828125 22.703125 48.234375 14.96875 
Q 45.65625 7.234375 40.5 3 
Q 35.359375 -1.21875 27.484375 -1.21875 
Q 17.140625 -1.21875 11.234375 6.203125 
Q 4.15625 15.140625 4.15625 35.296875 
z
M 13.1875 35.296875 
Q 13.1875 17.671875 17.3125 11.828125 
Q 21.4375 6 27.484375 6 
Q 33.546875 6 37.671875 11.859375 
Q 41.796875 17.71875 41.796875 35.296875 
Q 41.796875 52.984375 37.671875 58.78125 
Q 33.546875 64.59375 27.390625 64.59375 
Q 21.34375 64.59375 17.71875 59.46875 
Q 13.1875 52.9375 13.1875 35.296875 
z
" id="ArialMT-48"/>
       </defs>
       <use xlink:href="#ArialMT-48"/>
      </g>
     </g>
    </g>
    <g id="xtick_2">
     <g id="line2d_2">
      <path clip-path="url(#pc931ce0cc7)" d="M 102.534388 184.799291 
L 102.534388 3.00024 
" style="fill:none;stroke:#ffffff;stroke-linecap:round;"/>
     </g>
     <g id="text_2">
      <!-- 5 -->
      <g style="fill:#262626;" transform="translate(99.475873 202.172885)scale(0.11 -0.11)">
       <defs>
        <path d="M 4.15625 18.75 
L 13.375 19.53125 
Q 14.40625 12.796875 18.140625 9.390625 
Q 21.875 6 27.15625 6 
Q 33.5 6 37.890625 10.78125 
Q 42.28125 15.578125 42.28125 23.484375 
Q 42.28125 31 38.0625 35.34375 
Q 33.84375 39.703125 27 39.703125 
Q 22.75 39.703125 19.328125 37.765625 
Q 15.921875 35.84375 13.96875 32.765625 
L 5.71875 33.84375 
L 12.640625 70.609375 
L 48.25 70.609375 
L 48.25 62.203125 
L 19.671875 62.203125 
L 15.828125 42.96875 
Q 22.265625 47.46875 29.34375 47.46875 
Q 38.71875 47.46875 45.15625 40.96875 
Q 51.609375 34.46875 51.609375 24.265625 
Q 51.609375 14.546875 45.953125 7.46875 
Q 39.0625 -1.21875 27.15625 -1.21875 
Q 17.390625 -1.21875 11.203125 4.25 
Q 5.03125 9.71875 4.15625 18.75 
z
" id="ArialMT-53"/>
       </defs>
       <use xlink:href="#ArialMT-53"/>
      </g>
     </g>
    </g>
    <g id="xtick_3">
     <g id="line2d_3">
      <path clip-path="url(#pc931ce0cc7)" d="M 161.712382 184.799291 
L 161.712382 3.00024 
" style="fill:none;stroke:#ffffff;stroke-linecap:round;"/>
     </g>
     <g id="text_3">
      <!-- 10 -->
      <g style="fill:#262626;" transform="translate(155.595351 202.172885)scale(0.11 -0.11)">
       <defs>
        <path d="M 37.25 0 
L 28.46875 0 
L 28.46875 56 
Q 25.296875 52.984375 20.140625 49.953125 
Q 14.984375 46.921875 10.890625 45.40625 
L 10.890625 53.90625 
Q 18.265625 57.375 23.78125 62.296875 
Q 29.296875 67.234375 31.59375 71.875 
L 37.25 71.875 
z
" id="ArialMT-49"/>
       </defs>
       <use xlink:href="#ArialMT-49"/>
       <use x="55.615234" xlink:href="#ArialMT-48"/>
      </g>
     </g>
    </g>
    <g id="xtick_4">
     <g id="line2d_4">
      <path clip-path="url(#pc931ce0cc7)" d="M 220.890375 184.799291 
L 220.890375 3.00024 
" style="fill:none;stroke:#ffffff;stroke-linecap:round;"/>
     </g>
     <g id="text_4">
      <!-- 15 -->
      <g style="fill:#262626;" transform="translate(214.773344 202.172885)scale(0.11 -0.11)">
       <use xlink:href="#ArialMT-49"/>
       <use x="55.615234" xlink:href="#ArialMT-53"/>
      </g>
     </g>
    </g>
    <g id="xtick_5">
     <g id="line2d_5">
      <path clip-path="url(#pc931ce0cc7)" d="M 280.068369 184.799291 
L 280.068369 3.00024 
" style="fill:none;stroke:#ffffff;stroke-linecap:round;"/>
     </g>
     <g id="text_5">
      <!-- 20 -->
      <g style="fill:#262626;" transform="translate(273.951337 202.172885)scale(0.11 -0.11)">
       <defs>
        <path d="M 50.34375 8.453125 
L 50.34375 0 
L 3.03125 0 
Q 2.9375 3.171875 4.046875 6.109375 
Q 5.859375 10.9375 9.828125 15.625 
Q 13.8125 20.3125 21.34375 26.46875 
Q 33.015625 36.03125 37.109375 41.625 
Q 41.21875 47.21875 41.21875 52.203125 
Q 41.21875 57.421875 37.46875 61 
Q 33.734375 64.59375 27.734375 64.59375 
Q 21.390625 64.59375 17.578125 60.78125 
Q 13.765625 56.984375 13.71875 50.25 
L 4.6875 51.171875 
Q 5.609375 61.28125 11.65625 66.578125 
Q 17.71875 71.875 27.9375 71.875 
Q 38.234375 71.875 44.234375 66.15625 
Q 50.25 60.453125 50.25 52 
Q 50.25 47.703125 48.484375 43.546875 
Q 46.734375 39.40625 42.65625 34.8125 
Q 38.578125 30.21875 29.109375 22.21875 
Q 21.1875 15.578125 18.9375 13.203125 
Q 16.703125 10.84375 15.234375 8.453125 
z
" id="ArialMT-50"/>
       </defs>
       <use xlink:href="#ArialMT-50"/>
       <use x="55.615234" xlink:href="#ArialMT-48"/>
      </g>
     </g>
    </g>
    <g id="xtick_6">
     <g id="line2d_6">
      <path clip-path="url(#pc931ce0cc7)" d="M 339.246362 184.799291 
L 339.246362 3.00024 
" style="fill:none;stroke:#ffffff;stroke-linecap:round;"/>
     </g>
     <g id="text_6">
      <!-- 25 -->
      <g style="fill:#262626;" transform="translate(333.129331 202.172885)scale(0.11 -0.11)">
       <use xlink:href="#ArialMT-50"/>
       <use x="55.615234" xlink:href="#ArialMT-53"/>
      </g>
     </g>
    </g>
    <g id="text_7">
     <!-- Wind speed [m/s] -->
     <g style="fill:#262626;" transform="translate(153.534063 217.09476)scale(0.12 -0.12)">
      <defs>
       <path d="M 20.21875 0 
L 1.21875 71.578125 
L 10.9375 71.578125 
L 21.828125 24.65625 
Q 23.578125 17.28125 24.859375 10.015625 
Q 27.59375 21.484375 28.078125 23.25 
L 41.703125 71.578125 
L 53.125 71.578125 
L 63.375 35.359375 
Q 67.234375 21.875 68.953125 10.015625 
Q 70.3125 16.796875 72.515625 25.59375 
L 83.734375 71.578125 
L 93.265625 71.578125 
L 73.640625 0 
L 64.5 0 
L 49.421875 54.546875 
Q 47.515625 61.375 47.171875 62.9375 
Q 46.046875 58.015625 45.0625 54.546875 
L 29.890625 0 
z
" id="ArialMT-87"/>
       <path d="M 6.640625 61.46875 
L 6.640625 71.578125 
L 15.4375 71.578125 
L 15.4375 61.46875 
z
M 6.640625 0 
L 6.640625 51.859375 
L 15.4375 51.859375 
L 15.4375 0 
z
" id="ArialMT-105"/>
       <path d="M 6.59375 0 
L 6.59375 51.859375 
L 14.5 51.859375 
L 14.5 44.484375 
Q 20.21875 53.03125 31 53.03125 
Q 35.6875 53.03125 39.625 51.34375 
Q 43.5625 49.65625 45.515625 46.921875 
Q 47.46875 44.1875 48.25 40.4375 
Q 48.734375 37.984375 48.734375 31.890625 
L 48.734375 0 
L 39.9375 0 
L 39.9375 31.546875 
Q 39.9375 36.921875 38.90625 39.578125 
Q 37.890625 42.234375 35.28125 43.8125 
Q 32.671875 45.40625 29.15625 45.40625 
Q 23.53125 45.40625 19.453125 41.84375 
Q 15.375 38.28125 15.375 28.328125 
L 15.375 0 
z
" id="ArialMT-110"/>
       <path d="M 40.234375 0 
L 40.234375 6.546875 
Q 35.296875 -1.171875 25.734375 -1.171875 
Q 19.53125 -1.171875 14.328125 2.25 
Q 9.125 5.671875 6.265625 11.796875 
Q 3.421875 17.921875 3.421875 25.875 
Q 3.421875 33.640625 6 39.96875 
Q 8.59375 46.296875 13.765625 49.65625 
Q 18.953125 53.03125 25.34375 53.03125 
Q 30.03125 53.03125 33.6875 51.046875 
Q 37.359375 49.078125 39.65625 45.90625 
L 39.65625 71.578125 
L 48.390625 71.578125 
L 48.390625 0 
z
M 12.453125 25.875 
Q 12.453125 15.921875 16.640625 10.984375 
Q 20.84375 6.0625 26.5625 6.0625 
Q 32.328125 6.0625 36.34375 10.765625 
Q 40.375 15.484375 40.375 25.140625 
Q 40.375 35.796875 36.265625 40.765625 
Q 32.171875 45.75 26.171875 45.75 
Q 20.3125 45.75 16.375 40.96875 
Q 12.453125 36.1875 12.453125 25.875 
z
" id="ArialMT-100"/>
       <path id="ArialMT-32"/>
       <path d="M 3.078125 15.484375 
L 11.765625 16.84375 
Q 12.5 11.625 15.84375 8.84375 
Q 19.1875 6.0625 25.203125 6.0625 
Q 31.25 6.0625 34.171875 8.515625 
Q 37.109375 10.984375 37.109375 14.3125 
Q 37.109375 17.28125 34.515625 19 
Q 32.71875 20.171875 25.53125 21.96875 
Q 15.875 24.421875 12.140625 26.203125 
Q 8.40625 27.984375 6.46875 31.125 
Q 4.546875 34.28125 4.546875 38.09375 
Q 4.546875 41.546875 6.125 44.5 
Q 7.71875 47.46875 10.453125 49.421875 
Q 12.5 50.921875 16.03125 51.96875 
Q 19.578125 53.03125 23.640625 53.03125 
Q 29.734375 53.03125 34.34375 51.265625 
Q 38.96875 49.515625 41.15625 46.5 
Q 43.359375 43.5 44.1875 38.484375 
L 35.59375 37.3125 
Q 35.015625 41.3125 32.203125 43.546875 
Q 29.390625 45.796875 24.265625 45.796875 
Q 18.21875 45.796875 15.625 43.796875 
Q 13.03125 41.796875 13.03125 39.109375 
Q 13.03125 37.40625 14.109375 36.03125 
Q 15.1875 34.625 17.484375 33.6875 
Q 18.796875 33.203125 25.25 31.453125 
Q 34.578125 28.953125 38.25 27.359375 
Q 41.9375 25.78125 44.03125 22.75 
Q 46.140625 19.734375 46.140625 15.234375 
Q 46.140625 10.84375 43.578125 6.953125 
Q 41.015625 3.078125 36.171875 0.953125 
Q 31.34375 -1.171875 25.25 -1.171875 
Q 15.140625 -1.171875 9.84375 3.03125 
Q 4.546875 7.234375 3.078125 15.484375 
z
" id="ArialMT-115"/>
       <path d="M 6.59375 -19.875 
L 6.59375 51.859375 
L 14.59375 51.859375 
L 14.59375 45.125 
Q 17.4375 49.078125 21 51.046875 
Q 24.5625 53.03125 29.640625 53.03125 
Q 36.28125 53.03125 41.359375 49.609375 
Q 46.4375 46.1875 49.015625 39.953125 
Q 51.609375 33.734375 51.609375 26.3125 
Q 51.609375 18.359375 48.75 11.984375 
Q 45.90625 5.609375 40.453125 2.21875 
Q 35.015625 -1.171875 29 -1.171875 
Q 24.609375 -1.171875 21.109375 0.6875 
Q 17.625 2.546875 15.375 5.375 
L 15.375 -19.875 
z
M 14.546875 25.640625 
Q 14.546875 15.625 18.59375 10.84375 
Q 22.65625 6.0625 28.421875 6.0625 
Q 34.28125 6.0625 38.453125 11.015625 
Q 42.625 15.96875 42.625 26.375 
Q 42.625 36.28125 38.546875 41.203125 
Q 34.46875 46.140625 28.8125 46.140625 
Q 23.1875 46.140625 18.859375 40.890625 
Q 14.546875 35.640625 14.546875 25.640625 
z
" id="ArialMT-112"/>
       <path d="M 42.09375 16.703125 
L 51.171875 15.578125 
Q 49.03125 7.625 43.21875 3.21875 
Q 37.40625 -1.171875 28.375 -1.171875 
Q 17 -1.171875 10.328125 5.828125 
Q 3.65625 12.84375 3.65625 25.484375 
Q 3.65625 38.578125 10.390625 45.796875 
Q 17.140625 53.03125 27.875 53.03125 
Q 38.28125 53.03125 44.875 45.953125 
Q 51.46875 38.875 51.46875 26.03125 
Q 51.46875 25.25 51.421875 23.6875 
L 12.75 23.6875 
Q 13.234375 15.140625 17.578125 10.59375 
Q 21.921875 6.0625 28.421875 6.0625 
Q 33.25 6.0625 36.671875 8.59375 
Q 40.09375 11.140625 42.09375 16.703125 
z
M 13.234375 30.90625 
L 42.1875 30.90625 
Q 41.609375 37.453125 38.875 40.71875 
Q 34.671875 45.796875 27.984375 45.796875 
Q 21.921875 45.796875 17.796875 41.75 
Q 13.671875 37.703125 13.234375 30.90625 
z
" id="ArialMT-101"/>
       <path d="M 6.78125 -19.875 
L 6.78125 71.578125 
L 26.171875 71.578125 
L 26.171875 64.3125 
L 15.578125 64.3125 
L 15.578125 -12.59375 
L 26.171875 -12.59375 
L 26.171875 -19.875 
z
" id="ArialMT-91"/>
       <path d="M 6.59375 0 
L 6.59375 51.859375 
L 14.453125 51.859375 
L 14.453125 44.578125 
Q 16.890625 48.390625 20.9375 50.703125 
Q 25 53.03125 30.171875 53.03125 
Q 35.9375 53.03125 39.625 50.640625 
Q 43.3125 48.25 44.828125 43.953125 
Q 50.984375 53.03125 60.84375 53.03125 
Q 68.5625 53.03125 72.703125 48.75 
Q 76.859375 44.484375 76.859375 35.59375 
L 76.859375 0 
L 68.109375 0 
L 68.109375 32.671875 
Q 68.109375 37.9375 67.25 40.25 
Q 66.40625 42.578125 64.15625 43.984375 
Q 61.921875 45.40625 58.890625 45.40625 
Q 53.421875 45.40625 49.796875 41.765625 
Q 46.1875 38.140625 46.1875 30.125 
L 46.1875 0 
L 37.40625 0 
L 37.40625 33.6875 
Q 37.40625 39.546875 35.25 42.46875 
Q 33.109375 45.40625 28.21875 45.40625 
Q 24.515625 45.40625 21.359375 43.453125 
Q 18.21875 41.5 16.796875 37.734375 
Q 15.375 33.984375 15.375 26.90625 
L 15.375 0 
z
" id="ArialMT-109"/>
       <path d="M 0 -1.21875 
L 20.75 72.796875 
L 27.78125 72.796875 
L 7.078125 -1.21875 
z
" id="ArialMT-47"/>
       <path d="M 21.296875 -19.875 
L 1.90625 -19.875 
L 1.90625 -12.59375 
L 12.5 -12.59375 
L 12.5 64.3125 
L 1.90625 64.3125 
L 1.90625 71.578125 
L 21.296875 71.578125 
z
" id="ArialMT-93"/>
      </defs>
      <use xlink:href="#ArialMT-87"/>
      <use x="94.384766" xlink:href="#ArialMT-105"/>
      <use x="116.601562" xlink:href="#ArialMT-110"/>
      <use x="172.216797" xlink:href="#ArialMT-100"/>
      <use x="227.832031" xlink:href="#ArialMT-32"/>
      <use x="255.615234" xlink:href="#ArialMT-115"/>
      <use x="305.615234" xlink:href="#ArialMT-112"/>
      <use x="361.230469" xlink:href="#ArialMT-101"/>
      <use x="416.845703" xlink:href="#ArialMT-101"/>
      <use x="472.460938" xlink:href="#ArialMT-100"/>
      <use x="528.076172" xlink:href="#ArialMT-32"/>
      <use x="555.859375" xlink:href="#ArialMT-91"/>
      <use x="583.642578" xlink:href="#ArialMT-109"/>
      <use x="666.943359" xlink:href="#ArialMT-47"/>
      <use x="694.726562" xlink:href="#ArialMT-115"/>
      <use x="744.726562" xlink:href="#ArialMT-93"/>
     </g>
    </g>
   </g>
   <g id="matplotlib.axis_2">
    <g id="ytick_1">
     <g id="line2d_7">
      <path clip-path="url(#pc931ce0cc7)" d="M 42.764615 176.535698 
L 356.99976 176.535698 
" style="fill:none;stroke:#ffffff;stroke-linecap:round;"/>
     </g>
     <g id="text_8">
      <!-- 0.0 -->
      <g style="fill:#262626;" transform="translate(17.974615 180.472495)scale(0.11 -0.11)">
       <defs>
        <path d="M 9.078125 0 
L 9.078125 10.015625 
L 19.09375 10.015625 
L 19.09375 0 
z
" id="ArialMT-46"/>
       </defs>
       <use xlink:href="#ArialMT-48"/>
       <use x="55.615234" xlink:href="#ArialMT-46"/>
       <use x="83.398438" xlink:href="#ArialMT-48"/>
      </g>
     </g>
    </g>
    <g id="ytick_2">
     <g id="line2d_8">
      <path clip-path="url(#pc931ce0cc7)" d="M 42.764615 143.481325 
L 356.99976 143.481325 
" style="fill:none;stroke:#ffffff;stroke-linecap:round;"/>
     </g>
     <g id="text_9">
      <!-- 0.2 -->
      <g style="fill:#262626;" transform="translate(17.974615 147.418122)scale(0.11 -0.11)">
       <use xlink:href="#ArialMT-48"/>
       <use x="55.615234" xlink:href="#ArialMT-46"/>
       <use x="83.398438" xlink:href="#ArialMT-50"/>
      </g>
     </g>
    </g>
    <g id="ytick_3">
     <g id="line2d_9">
      <path clip-path="url(#pc931ce0cc7)" d="M 42.764615 110.426952 
L 356.99976 110.426952 
" style="fill:none;stroke:#ffffff;stroke-linecap:round;"/>
     </g>
     <g id="text_10">
      <!-- 0.4 -->
      <g style="fill:#262626;" transform="translate(17.974615 114.363749)scale(0.11 -0.11)">
       <defs>
        <path d="M 32.328125 0 
L 32.328125 17.140625 
L 1.265625 17.140625 
L 1.265625 25.203125 
L 33.9375 71.578125 
L 41.109375 71.578125 
L 41.109375 25.203125 
L 50.78125 25.203125 
L 50.78125 17.140625 
L 41.109375 17.140625 
L 41.109375 0 
z
M 32.328125 25.203125 
L 32.328125 57.46875 
L 9.90625 25.203125 
z
" id="ArialMT-52"/>
       </defs>
       <use xlink:href="#ArialMT-48"/>
       <use x="55.615234" xlink:href="#ArialMT-46"/>
       <use x="83.398438" xlink:href="#ArialMT-52"/>
      </g>
     </g>
    </g>
    <g id="ytick_4">
     <g id="line2d_10">
      <path clip-path="url(#pc931ce0cc7)" d="M 42.764615 77.372579 
L 356.99976 77.372579 
" style="fill:none;stroke:#ffffff;stroke-linecap:round;"/>
     </g>
     <g id="text_11">
      <!-- 0.6 -->
      <g style="fill:#262626;" transform="translate(17.974615 81.309376)scale(0.11 -0.11)">
       <defs>
        <path d="M 49.75 54.046875 
L 41.015625 53.375 
Q 39.84375 58.546875 37.703125 60.890625 
Q 34.125 64.65625 28.90625 64.65625 
Q 24.703125 64.65625 21.53125 62.3125 
Q 17.390625 59.28125 14.984375 53.46875 
Q 12.59375 47.65625 12.5 36.921875 
Q 15.671875 41.75 20.265625 44.09375 
Q 24.859375 46.4375 29.890625 46.4375 
Q 38.671875 46.4375 44.84375 39.96875 
Q 51.03125 33.5 51.03125 23.25 
Q 51.03125 16.5 48.125 10.71875 
Q 45.21875 4.9375 40.140625 1.859375 
Q 35.0625 -1.21875 28.609375 -1.21875 
Q 17.625 -1.21875 10.6875 6.859375 
Q 3.765625 14.9375 3.765625 33.5 
Q 3.765625 54.25 11.421875 63.671875 
Q 18.109375 71.875 29.4375 71.875 
Q 37.890625 71.875 43.28125 67.140625 
Q 48.6875 62.40625 49.75 54.046875 
z
M 13.875 23.1875 
Q 13.875 18.65625 15.796875 14.5 
Q 17.71875 10.359375 21.1875 8.171875 
Q 24.65625 6 28.46875 6 
Q 34.03125 6 38.03125 10.484375 
Q 42.046875 14.984375 42.046875 22.703125 
Q 42.046875 30.125 38.078125 34.390625 
Q 34.125 38.671875 28.125 38.671875 
Q 22.171875 38.671875 18.015625 34.390625 
Q 13.875 30.125 13.875 23.1875 
z
" id="ArialMT-54"/>
       </defs>
       <use xlink:href="#ArialMT-48"/>
       <use x="55.615234" xlink:href="#ArialMT-46"/>
       <use x="83.398438" xlink:href="#ArialMT-54"/>
      </g>
     </g>
    </g>
    <g id="ytick_5">
     <g id="line2d_11">
      <path clip-path="url(#pc931ce0cc7)" d="M 42.764615 44.318206 
L 356.99976 44.318206 
" style="fill:none;stroke:#ffffff;stroke-linecap:round;"/>
     </g>
     <g id="text_12">
      <!-- 0.8 -->
      <g style="fill:#262626;" transform="translate(17.974615 48.255003)scale(0.11 -0.11)">
       <defs>
        <path d="M 17.671875 38.8125 
Q 12.203125 40.828125 9.5625 44.53125 
Q 6.9375 48.25 6.9375 53.421875 
Q 6.9375 61.234375 12.546875 66.546875 
Q 18.171875 71.875 27.484375 71.875 
Q 36.859375 71.875 42.578125 66.421875 
Q 48.296875 60.984375 48.296875 53.171875 
Q 48.296875 48.1875 45.671875 44.5 
Q 43.0625 40.828125 37.75 38.8125 
Q 44.34375 36.671875 47.78125 31.875 
Q 51.21875 27.09375 51.21875 20.453125 
Q 51.21875 11.28125 44.71875 5.03125 
Q 38.234375 -1.21875 27.640625 -1.21875 
Q 17.046875 -1.21875 10.546875 5.046875 
Q 4.046875 11.328125 4.046875 20.703125 
Q 4.046875 27.6875 7.59375 32.390625 
Q 11.140625 37.109375 17.671875 38.8125 
z
M 15.921875 53.71875 
Q 15.921875 48.640625 19.1875 45.40625 
Q 22.46875 42.1875 27.6875 42.1875 
Q 32.765625 42.1875 36.015625 45.375 
Q 39.265625 48.578125 39.265625 53.21875 
Q 39.265625 58.0625 35.90625 61.359375 
Q 32.5625 64.65625 27.59375 64.65625 
Q 22.5625 64.65625 19.234375 61.421875 
Q 15.921875 58.203125 15.921875 53.71875 
z
M 13.09375 20.65625 
Q 13.09375 16.890625 14.875 13.375 
Q 16.65625 9.859375 20.171875 7.921875 
Q 23.6875 6 27.734375 6 
Q 34.03125 6 38.125 10.046875 
Q 42.234375 14.109375 42.234375 20.359375 
Q 42.234375 26.703125 38.015625 30.859375 
Q 33.796875 35.015625 27.4375 35.015625 
Q 21.234375 35.015625 17.15625 30.90625 
Q 13.09375 26.8125 13.09375 20.65625 
z
" id="ArialMT-56"/>
       </defs>
       <use xlink:href="#ArialMT-48"/>
       <use x="55.615234" xlink:href="#ArialMT-46"/>
       <use x="83.398438" xlink:href="#ArialMT-56"/>
      </g>
     </g>
    </g>
    <g id="ytick_6">
     <g id="line2d_12">
      <path clip-path="url(#pc931ce0cc7)" d="M 42.764615 11.263833 
L 356.99976 11.263833 
" style="fill:none;stroke:#ffffff;stroke-linecap:round;"/>
     </g>
     <g id="text_13">
      <!-- 1.0 -->
      <g style="fill:#262626;" transform="translate(17.974615 15.20063)scale(0.11 -0.11)">
       <use xlink:href="#ArialMT-49"/>
       <use x="55.615234" xlink:href="#ArialMT-46"/>
       <use x="83.398438" xlink:href="#ArialMT-48"/>
      </g>
     </g>
    </g>
    <g id="text_14">
     <!-- Active power output [p.u.] -->
     <g style="fill:#262626;" transform="translate(11.589615 161.600391)rotate(-90)scale(0.12 -0.12)">
      <defs>
       <path d="M -0.140625 0 
L 27.34375 71.578125 
L 37.546875 71.578125 
L 66.84375 0 
L 56.0625 0 
L 47.703125 21.6875 
L 17.78125 21.6875 
L 9.90625 0 
z
M 20.515625 29.390625 
L 44.78125 29.390625 
L 37.3125 49.21875 
Q 33.890625 58.25 32.234375 64.0625 
Q 30.859375 57.171875 28.375 50.390625 
z
" id="ArialMT-65"/>
       <path d="M 40.4375 19 
L 49.078125 17.875 
Q 47.65625 8.9375 41.8125 3.875 
Q 35.984375 -1.171875 27.484375 -1.171875 
Q 16.84375 -1.171875 10.375 5.78125 
Q 3.90625 12.75 3.90625 25.734375 
Q 3.90625 34.125 6.6875 40.421875 
Q 9.46875 46.734375 15.15625 49.875 
Q 20.84375 53.03125 27.546875 53.03125 
Q 35.984375 53.03125 41.359375 48.75 
Q 46.734375 44.484375 48.25 36.625 
L 39.703125 35.296875 
Q 38.484375 40.53125 35.375 43.15625 
Q 32.28125 45.796875 27.875 45.796875 
Q 21.234375 45.796875 17.078125 41.03125 
Q 12.9375 36.28125 12.9375 25.984375 
Q 12.9375 15.53125 16.9375 10.796875 
Q 20.953125 6.0625 27.390625 6.0625 
Q 32.5625 6.0625 36.03125 9.234375 
Q 39.5 12.40625 40.4375 19 
z
" id="ArialMT-99"/>
       <path d="M 25.78125 7.859375 
L 27.046875 0.09375 
Q 23.34375 -0.6875 20.40625 -0.6875 
Q 15.625 -0.6875 12.984375 0.828125 
Q 10.359375 2.34375 9.28125 4.8125 
Q 8.203125 7.28125 8.203125 15.1875 
L 8.203125 45.015625 
L 1.765625 45.015625 
L 1.765625 51.859375 
L 8.203125 51.859375 
L 8.203125 64.703125 
L 16.9375 69.96875 
L 16.9375 51.859375 
L 25.78125 51.859375 
L 25.78125 45.015625 
L 16.9375 45.015625 
L 16.9375 14.703125 
Q 16.9375 10.9375 17.40625 9.859375 
Q 17.875 8.796875 18.921875 8.15625 
Q 19.96875 7.515625 21.921875 7.515625 
Q 23.390625 7.515625 25.78125 7.859375 
z
" id="ArialMT-116"/>
       <path d="M 21 0 
L 1.265625 51.859375 
L 10.546875 51.859375 
L 21.6875 20.796875 
Q 23.484375 15.765625 25 10.359375 
Q 26.171875 14.453125 28.265625 20.21875 
L 39.796875 51.859375 
L 48.828125 51.859375 
L 29.203125 0 
z
" id="ArialMT-118"/>
       <path d="M 3.328125 25.921875 
Q 3.328125 40.328125 11.328125 47.265625 
Q 18.015625 53.03125 27.640625 53.03125 
Q 38.328125 53.03125 45.109375 46.015625 
Q 51.90625 39.015625 51.90625 26.65625 
Q 51.90625 16.65625 48.90625 10.90625 
Q 45.90625 5.171875 40.15625 2 
Q 34.421875 -1.171875 27.640625 -1.171875 
Q 16.75 -1.171875 10.03125 5.8125 
Q 3.328125 12.796875 3.328125 25.921875 
z
M 12.359375 25.921875 
Q 12.359375 15.96875 16.703125 11.015625 
Q 21.046875 6.0625 27.640625 6.0625 
Q 34.1875 6.0625 38.53125 11.03125 
Q 42.875 16.015625 42.875 26.21875 
Q 42.875 35.84375 38.5 40.796875 
Q 34.125 45.75 27.640625 45.75 
Q 21.046875 45.75 16.703125 40.8125 
Q 12.359375 35.890625 12.359375 25.921875 
z
" id="ArialMT-111"/>
       <path d="M 16.15625 0 
L 0.296875 51.859375 
L 9.375 51.859375 
L 17.625 21.921875 
L 20.703125 10.796875 
Q 20.90625 11.625 23.390625 21.484375 
L 31.640625 51.859375 
L 40.671875 51.859375 
L 48.4375 21.78125 
L 51.03125 11.859375 
L 54 21.875 
L 62.890625 51.859375 
L 71.4375 51.859375 
L 55.21875 0 
L 46.09375 0 
L 37.84375 31.0625 
L 35.84375 39.890625 
L 25.34375 0 
z
" id="ArialMT-119"/>
       <path d="M 6.5 0 
L 6.5 51.859375 
L 14.40625 51.859375 
L 14.40625 44 
Q 17.4375 49.515625 20 51.265625 
Q 22.5625 53.03125 25.640625 53.03125 
Q 30.078125 53.03125 34.671875 50.203125 
L 31.640625 42.046875 
Q 28.421875 43.953125 25.203125 43.953125 
Q 22.3125 43.953125 20.015625 42.21875 
Q 17.71875 40.484375 16.75 37.40625 
Q 15.28125 32.71875 15.28125 27.15625 
L 15.28125 0 
z
" id="ArialMT-114"/>
       <path d="M 40.578125 0 
L 40.578125 7.625 
Q 34.515625 -1.171875 24.125 -1.171875 
Q 19.53125 -1.171875 15.546875 0.578125 
Q 11.578125 2.34375 9.640625 5 
Q 7.71875 7.671875 6.9375 11.53125 
Q 6.390625 14.109375 6.390625 19.734375 
L 6.390625 51.859375 
L 15.1875 51.859375 
L 15.1875 23.09375 
Q 15.1875 16.21875 15.71875 13.8125 
Q 16.546875 10.359375 19.234375 8.375 
Q 21.921875 6.390625 25.875 6.390625 
Q 29.828125 6.390625 33.296875 8.421875 
Q 36.765625 10.453125 38.203125 13.9375 
Q 39.65625 17.4375 39.65625 24.078125 
L 39.65625 51.859375 
L 48.4375 51.859375 
L 48.4375 0 
z
" id="ArialMT-117"/>
      </defs>
      <use xlink:href="#ArialMT-65"/>
      <use x="66.699219" xlink:href="#ArialMT-99"/>
      <use x="116.699219" xlink:href="#ArialMT-116"/>
      <use x="144.482422" xlink:href="#ArialMT-105"/>
      <use x="166.699219" xlink:href="#ArialMT-118"/>
      <use x="216.699219" xlink:href="#ArialMT-101"/>
      <use x="272.314453" xlink:href="#ArialMT-32"/>
      <use x="300.097656" xlink:href="#ArialMT-112"/>
      <use x="355.712891" xlink:href="#ArialMT-111"/>
      <use x="411.328125" xlink:href="#ArialMT-119"/>
      <use x="483.544922" xlink:href="#ArialMT-101"/>
      <use x="539.160156" xlink:href="#ArialMT-114"/>
      <use x="572.460938" xlink:href="#ArialMT-32"/>
      <use x="600.244141" xlink:href="#ArialMT-111"/>
      <use x="655.859375" xlink:href="#ArialMT-117"/>
      <use x="711.474609" xlink:href="#ArialMT-116"/>
      <use x="739.257812" xlink:href="#ArialMT-112"/>
      <use x="794.873047" xlink:href="#ArialMT-117"/>
      <use x="850.488281" xlink:href="#ArialMT-116"/>
      <use x="878.271484" xlink:href="#ArialMT-32"/>
      <use x="906.054688" xlink:href="#ArialMT-91"/>
      <use x="933.837891" xlink:href="#ArialMT-112"/>
      <use x="989.453125" xlink:href="#ArialMT-46"/>
      <use x="1017.236328" xlink:href="#ArialMT-117"/>
      <use x="1072.851562" xlink:href="#ArialMT-46"/>
      <use x="1100.634766" xlink:href="#ArialMT-93"/>
     </g>
    </g>
   </g>
   <g id="line2d_13">
    <path clip-path="url(#pc931ce0cc7)" d="M 43.356395 177.996032 
L 54.008434 177.910557 
L 61.109793 177.636503 
L 67.027592 177.188622 
L 72.945392 176.483757 
L 77.679631 175.700394 
L 82.413871 174.694497 
L 87.14811 173.441429 
L 91.88235 171.917117 
L 96.616589 170.097988 
L 100.167269 168.52625 
L 103.717948 166.766087 
L 107.268628 164.808065 
L 110.819307 162.642918 
L 114.369987 160.26157 
L 117.920667 157.655188 
L 121.471346 154.815254 
L 125.022026 151.73367 
L 128.572705 148.402911 
L 132.123385 144.816237 
L 135.674065 140.967976 
L 139.224744 136.853909 
L 142.775424 132.471761 
L 147.509663 126.212861 
L 152.243903 119.488651 
L 156.978142 112.324081 
L 161.712382 104.763256 
L 167.630181 94.861044 
L 178.28222 76.411009 
L 185.383579 64.349311 
L 190.117819 56.743981 
L 193.668498 51.3807 
L 197.219178 46.369695 
L 200.769857 41.750566 
L 204.320537 37.547501 
L 207.871217 33.769181 
L 211.421896 30.410142 
L 214.972576 27.453209 
L 218.523255 24.87249 
L 222.073935 22.636433 
L 225.624615 20.710591 
L 229.175294 19.059879 
L 232.725974 17.650245 
L 236.276653 16.449798 
L 241.010893 15.124777 
L 245.745132 14.059955 
L 250.479372 13.204752 
L 256.397171 12.367944 
L 263.49853 11.621731 
L 271.783449 11.005624 
L 281.251928 10.529021 
L 294.271087 10.121544 
L 312.024485 9.822709 
L 339.246362 9.624668 
L 339.246362 9.624668 
" style="fill:none;stroke:#1a1a1a;stroke-dasharray:1.5,2.475;stroke-dashoffset:0;stroke-width:1.5;"/>
   </g>
   <g id="line2d_14">
    <path clip-path="url(#pc931ce0cc7)" d="M 43.356395 177.957159 
L 54.008434 177.865947 
L 61.109793 177.565873 
L 67.027592 177.068643 
L 71.761832 176.463015 
L 76.496071 175.638472 
L 81.230311 174.564318 
L 85.96455 173.210508 
L 89.51523 171.99387 
L 93.065909 170.591074 
L 96.616589 168.990008 
L 100.167269 167.178689 
L 103.717948 165.145264 
L 107.268628 162.878004 
L 110.819307 160.365312 
L 114.369987 157.595741 
L 117.920667 154.558026 
L 121.471346 151.241148 
L 125.022026 147.634433 
L 128.572705 143.727713 
L 132.123385 139.51158 
L 135.674065 134.97776 
L 139.224744 130.11967 
L 142.775424 124.933215 
L 146.326103 119.417905 
L 149.876783 113.578362 
L 154.611023 105.309513 
L 159.345262 96.54167 
L 165.263061 85.034326 
L 179.46578 57.038844 
L 183.016459 50.572509 
L 186.567139 44.556526 
L 190.117819 39.083459 
L 192.484938 35.767794 
L 194.852058 32.730133 
L 197.219178 29.972313 
L 199.586298 27.489628 
L 201.953417 25.271825 
L 204.320537 23.304319 
L 206.687657 21.569472 
L 209.054776 20.04781 
L 211.421896 18.719077 
L 214.972576 17.043781 
L 218.523255 15.692805 
L 222.073935 14.608132 
L 225.624615 13.73961 
L 230.358854 12.846029 
L 235.093094 12.182818 
L 241.010893 11.587548 
L 248.112252 11.108468 
L 257.580731 10.718761 
L 270.59989 10.437435 
L 290.720407 10.258334 
L 330.961443 10.170775 
L 339.246362 10.165656 
L 339.246362 10.165656 
" style="fill:none;stroke:#ff8c00;stroke-dasharray:5.55,2.4;stroke-dashoffset:0;stroke-width:1.5;"/>
   </g>
   <g id="line2d_15">
    <path clip-path="url(#pc931ce0cc7)" d="M 43.356395 178.154129 
L 54.008434 178.049032 
L 59.926233 177.784579 
L 65.844032 177.272858 
L 70.578272 176.636224 
L 75.312511 175.758495 
L 80.046751 174.604626 
L 83.59743 173.537377 
L 87.14811 172.281327 
L 90.69879 170.822473 
L 94.249469 169.146988 
L 97.800149 167.241206 
L 101.350828 165.091605 
L 104.901508 162.684801 
L 108.452188 160.007541 
L 112.002867 157.046697 
L 115.553547 153.789269 
L 119.104226 150.222397 
L 122.654906 146.333398 
L 126.205586 142.109824 
L 129.756265 137.539591 
L 133.306945 132.611202 
L 136.857625 127.314137 
L 140.408304 121.63951 
L 143.958984 115.581152 
L 147.509663 109.137343 
L 151.060343 102.313484 
L 155.794582 92.6546 
L 160.528822 82.439904 
L 168.813741 63.813656 
L 173.54798 53.325674 
L 177.09866 45.894345 
L 180.64934 39.075514 
L 183.016459 34.961511 
L 185.383579 31.238353 
L 187.750699 27.925971 
L 190.117819 25.026622 
L 192.484938 22.526572 
L 194.852058 20.399435 
L 197.219178 18.610318 
L 199.586298 17.119916 
L 201.953417 15.887977 
L 204.320537 14.875842 
L 206.687657 14.048069 
L 210.238336 13.084588 
L 213.789016 12.378311 
L 218.523255 11.721876 
L 223.257495 11.288203 
L 230.358854 10.894752 
L 239.827333 10.630932 
L 255.213611 10.467666 
L 288.353288 10.398903 
L 339.246362 10.390749 
L 339.246362 10.390749 
" style="fill:none;stroke:#4c72b0;stroke-linecap:round;stroke-width:1.5;"/>
   </g>
   <g id="PathCollection_1">
    <defs>
     <path d="M -2.828427 0 
L 2.828427 0 
M 0 2.828427 
L 0 -2.828427 
" id="mf0f9c03487" style="stroke:#c44e52;stroke-width:1.5;"/>
    </defs>
    <g clip-path="url(#pc931ce0cc7)">
     <use style="fill:#c44e52;stroke:#c44e52;stroke-width:1.5;" x="90.69879" xlink:href="#mf0f9c03487" y="173.615895"/>
     <use style="fill:#c44e52;stroke:#c44e52;stroke-width:1.5;" x="102.534388" xlink:href="#mf0f9c03487" y="168.71283"/>
     <use style="fill:#c44e52;stroke:#c44e52;stroke-width:1.5;" x="114.369987" xlink:href="#mf0f9c03487" y="161.60614"/>
     <use style="fill:#c44e52;stroke:#c44e52;stroke-width:1.5;" x="126.205586" xlink:href="#mf0f9c03487" y="151.689828"/>
     <use style="fill:#c44e52;stroke:#c44e52;stroke-width:1.5;" x="138.041184" xlink:href="#mf0f9c03487" y="138.468078"/>
     <use style="fill:#c44e52;stroke:#c44e52;stroke-width:1.5;" x="149.876783" xlink:href="#mf0f9c03487" y="121.72053"/>
     <use style="fill:#c44e52;stroke:#c44e52;stroke-width:1.5;" x="161.712382" xlink:href="#mf0f9c03487" y="102.659174"/>
     <use style="fill:#c44e52;stroke:#c44e52;stroke-width:1.5;" x="173.54798" xlink:href="#mf0f9c03487" y="83.65291"/>
     <use style="fill:#c44e52;stroke:#c44e52;stroke-width:1.5;" x="185.383579" xlink:href="#mf0f9c03487" y="65.803549"/>
     <use style="fill:#c44e52;stroke:#c44e52;stroke-width:1.5;" x="197.219178" xlink:href="#mf0f9c03487" y="49.276362"/>
     <use style="fill:#c44e52;stroke:#c44e52;stroke-width:1.5;" x="209.054776" xlink:href="#mf0f9c03487" y="33.961169"/>
     <use style="fill:#c44e52;stroke:#c44e52;stroke-width:1.5;" x="220.890375" xlink:href="#mf0f9c03487" y="21.455598"/>
     <use style="fill:#c44e52;stroke:#c44e52;stroke-width:1.5;" x="232.725974" xlink:href="#mf0f9c03487" y="14.403999"/>
     <use style="fill:#c44e52;stroke:#c44e52;stroke-width:1.5;" x="244.561573" xlink:href="#mf0f9c03487" y="11.924921"/>
     <use style="fill:#c44e52;stroke:#c44e52;stroke-width:1.5;" x="256.397171" xlink:href="#mf0f9c03487" y="11.374014"/>
     <use style="fill:#c44e52;stroke:#c44e52;stroke-width:1.5;" x="268.23277" xlink:href="#mf0f9c03487" y="11.263833"/>
     <use style="fill:#c44e52;stroke:#c44e52;stroke-width:1.5;" x="280.068369" xlink:href="#mf0f9c03487" y="11.263833"/>
     <use style="fill:#c44e52;stroke:#c44e52;stroke-width:1.5;" x="291.903967" xlink:href="#mf0f9c03487" y="11.263833"/>
     <use style="fill:#c44e52;stroke:#c44e52;stroke-width:1.5;" x="303.739566" xlink:href="#mf0f9c03487" y="11.263833"/>
     <use style="fill:#c44e52;stroke:#c44e52;stroke-width:1.5;" x="315.575165" xlink:href="#mf0f9c03487" y="11.263833"/>
     <use style="fill:#c44e52;stroke:#c44e52;stroke-width:1.5;" x="327.410763" xlink:href="#mf0f9c03487" y="11.263833"/>
     <use style="fill:#c44e52;stroke:#c44e52;stroke-width:1.5;" x="339.246362" xlink:href="#mf0f9c03487" y="11.263833"/>
    </g>
   </g>
   <g id="PathCollection_2">
    <defs>
     <path d="M 0 0 
L 0 -3.354102 
M 0 0 
L -2.683282 1.677051 
M 0 0 
L 2.683282 1.677051 
" id="m9bde9fe31b" style="stroke:#55a868;stroke-width:1.5;"/>
    </defs>
    <g clip-path="url(#pc931ce0cc7)">
     <use style="fill:#55a868;stroke:#55a868;stroke-width:1.5;" x="90.69879" xlink:href="#m9bde9fe31b" y="172.844626"/>
     <use style="fill:#55a868;stroke:#55a868;stroke-width:1.5;" x="102.534388" xlink:href="#m9bde9fe31b" y="167.170292"/>
     <use style="fill:#55a868;stroke:#55a868;stroke-width:1.5;" x="114.369987" xlink:href="#m9bde9fe31b" y="158.96179"/>
     <use style="fill:#55a868;stroke:#55a868;stroke-width:1.5;" x="126.205586" xlink:href="#m9bde9fe31b" y="147.44785"/>
     <use style="fill:#55a868;stroke:#55a868;stroke-width:1.5;" x="138.041184" xlink:href="#m9bde9fe31b" y="132.132657"/>
     <use style="fill:#55a868;stroke:#55a868;stroke-width:1.5;" x="149.876783" xlink:href="#m9bde9fe31b" y="112.685668"/>
     <use style="fill:#55a868;stroke:#55a868;stroke-width:1.5;" x="161.712382" xlink:href="#m9bde9fe31b" y="90.70451"/>
     <use style="fill:#55a868;stroke:#55a868;stroke-width:1.5;" x="173.54798" xlink:href="#m9bde9fe31b" y="68.778442"/>
     <use style="fill:#55a868;stroke:#55a868;stroke-width:1.5;" x="185.383579" xlink:href="#m9bde9fe31b" y="48.22964"/>
     <use style="fill:#55a868;stroke:#55a868;stroke-width:1.5;" x="197.219178" xlink:href="#m9bde9fe31b" y="30.104826"/>
     <use style="fill:#55a868;stroke:#55a868;stroke-width:1.5;" x="209.054776" xlink:href="#m9bde9fe31b" y="17.709436"/>
     <use style="fill:#55a868;stroke:#55a868;stroke-width:1.5;" x="220.890375" xlink:href="#m9bde9fe31b" y="12.641099"/>
     <use style="fill:#55a868;stroke:#55a868;stroke-width:1.5;" x="232.725974" xlink:href="#m9bde9fe31b" y="11.484196"/>
     <use style="fill:#55a868;stroke:#55a868;stroke-width:1.5;" x="244.561573" xlink:href="#m9bde9fe31b" y="11.263833"/>
     <use style="fill:#55a868;stroke:#55a868;stroke-width:1.5;" x="256.397171" xlink:href="#m9bde9fe31b" y="11.263833"/>
     <use style="fill:#55a868;stroke:#55a868;stroke-width:1.5;" x="268.23277" xlink:href="#m9bde9fe31b" y="11.263833"/>
     <use style="fill:#55a868;stroke:#55a868;stroke-width:1.5;" x="280.068369" xlink:href="#m9bde9fe31b" y="11.263833"/>
     <use style="fill:#55a868;stroke:#55a868;stroke-width:1.5;" x="291.903967" xlink:href="#m9bde9fe31b" y="11.263833"/>
     <use style="fill:#55a868;stroke:#55a868;stroke-width:1.5;" x="303.739566" xlink:href="#m9bde9fe31b" y="11.263833"/>
     <use style="fill:#55a868;stroke:#55a868;stroke-width:1.5;" x="315.575165" xlink:href="#m9bde9fe31b" y="11.263833"/>
     <use style="fill:#55a868;stroke:#55a868;stroke-width:1.5;" x="327.410763" xlink:href="#m9bde9fe31b" y="11.263833"/>
     <use style="fill:#55a868;stroke:#55a868;stroke-width:1.5;" x="339.246362" xlink:href="#m9bde9fe31b" y="11.263833"/>
    </g>
   </g>
   <g id="PathCollection_3">
    <defs>
     <path d="M 0 2 
C 0.530406 2 1.03916 1.789267 1.414214 1.414214 
C 1.789267 1.03916 2 0.530406 2 -0 
C 2 -0.530406 1.789267 -1.03916 1.414214 -1.414214 
C 1.03916 -1.789267 0.530406 -2 0 -2 
C -0.530406 -2 -1.03916 -1.789267 -1.414214 -1.414214 
C -1.789267 -1.03916 -2 -0.530406 -2 0 
C -2 0.530406 -1.789267 1.03916 -1.414214 1.414214 
C -1.03916 1.789267 -0.530406 2 0 2 
z
" id="C0_0_7c43990370"/>
    </defs>
    <g clip-path="url(#pc931ce0cc7)">
     <use style="fill:none;stroke:#ff00ff;" x="90.69879" xlink:href="#C0_0_7c43990370" y="172.073358"/>
    </g>
    <g clip-path="url(#pc931ce0cc7)">
     <use style="fill:none;stroke:#ff00ff;" x="102.534388" xlink:href="#C0_0_7c43990370" y="165.627755"/>
    </g>
    <g clip-path="url(#pc931ce0cc7)">
     <use style="fill:none;stroke:#ff00ff;" x="114.369987" xlink:href="#C0_0_7c43990370" y="156.262349"/>
    </g>
    <g clip-path="url(#pc931ce0cc7)">
     <use style="fill:none;stroke:#ff00ff;" x="126.205586" xlink:href="#C0_0_7c43990370" y="143.260963"/>
    </g>
    <g clip-path="url(#pc931ce0cc7)">
     <use style="fill:none;stroke:#ff00ff;" x="138.041184" xlink:href="#C0_0_7c43990370" y="125.797236"/>
    </g>
    <g clip-path="url(#pc931ce0cc7)">
     <use style="fill:none;stroke:#ff00ff;" x="149.876783" xlink:href="#C0_0_7c43990370" y="103.705896"/>
    </g>
    <g clip-path="url(#pc931ce0cc7)">
     <use style="fill:none;stroke:#ff00ff;" x="161.712382" xlink:href="#C0_0_7c43990370" y="78.749845"/>
    </g>
    <g clip-path="url(#pc931ce0cc7)">
     <use style="fill:none;stroke:#ff00ff;" x="173.54798" xlink:href="#C0_0_7c43990370" y="53.903974"/>
    </g>
    <g clip-path="url(#pc931ce0cc7)">
     <use style="fill:none;stroke:#ff00ff;" x="185.383579" xlink:href="#C0_0_7c43990370" y="31.757544"/>
    </g>
    <g clip-path="url(#pc931ce0cc7)">
     <use style="fill:none;stroke:#ff00ff;" x="197.219178" xlink:href="#C0_0_7c43990370" y="17.378892"/>
    </g>
    <g clip-path="url(#pc931ce0cc7)">
     <use style="fill:none;stroke:#ff00ff;" x="209.054776" xlink:href="#C0_0_7c43990370" y="12.310555"/>
    </g>
    <g clip-path="url(#pc931ce0cc7)">
     <use style="fill:none;stroke:#ff00ff;" x="220.890375" xlink:href="#C0_0_7c43990370" y="11.374014"/>
    </g>
    <g clip-path="url(#pc931ce0cc7)">
     <use style="fill:none;stroke:#ff00ff;" x="232.725974" xlink:href="#C0_0_7c43990370" y="11.263833"/>
    </g>
    <g clip-path="url(#pc931ce0cc7)">
     <use style="fill:none;stroke:#ff00ff;" x="244.561573" xlink:href="#C0_0_7c43990370" y="11.263833"/>
    </g>
    <g clip-path="url(#pc931ce0cc7)">
     <use style="fill:none;stroke:#ff00ff;" x="256.397171" xlink:href="#C0_0_7c43990370" y="11.263833"/>
    </g>
    <g clip-path="url(#pc931ce0cc7)">
     <use style="fill:none;stroke:#ff00ff;" x="268.23277" xlink:href="#C0_0_7c43990370" y="11.263833"/>
    </g>
    <g clip-path="url(#pc931ce0cc7)">
     <use style="fill:none;stroke:#ff00ff;" x="280.068369" xlink:href="#C0_0_7c43990370" y="11.263833"/>
    </g>
    <g clip-path="url(#pc931ce0cc7)">
     <use style="fill:none;stroke:#ff00ff;" x="291.903967" xlink:href="#C0_0_7c43990370" y="11.263833"/>
    </g>
    <g clip-path="url(#pc931ce0cc7)">
     <use style="fill:none;stroke:#ff00ff;" x="303.739566" xlink:href="#C0_0_7c43990370" y="11.263833"/>
    </g>
    <g clip-path="url(#pc931ce0cc7)">
     <use style="fill:none;stroke:#ff00ff;" x="315.575165" xlink:href="#C0_0_7c43990370" y="11.263833"/>
    </g>
    <g clip-path="url(#pc931ce0cc7)">
     <use style="fill:none;stroke:#ff00ff;" x="327.410763" xlink:href="#C0_0_7c43990370" y="11.263833"/>
    </g>
    <g clip-path="url(#pc931ce0cc7)">
     <use style="fill:none;stroke:#ff00ff;" x="339.246362" xlink:href="#C0_0_7c43990370" y="11.263833"/>
    </g>
   </g>
   <g id="patch_3">
    <path d="M 42.764615 184.799291 
L 42.764615 3.00024 
" style="fill:none;stroke:#ffffff;stroke-linecap:square;stroke-linejoin:miter;stroke-width:1.25;"/>
   </g>
   <g id="patch_4">
    <path d="M 356.99976 184.799291 
L 356.99976 3.00024 
" style="fill:none;stroke:#ffffff;stroke-linecap:square;stroke-linejoin:miter;stroke-width:1.25;"/>
   </g>
   <g id="patch_5">
    <path d="M 42.764615 184.799291 
L 356.99976 184.799291 
" style="fill:none;stroke:#ffffff;stroke-linecap:square;stroke-linejoin:miter;stroke-width:1.25;"/>
   </g>
   <g id="patch_6">
    <path d="M 42.764615 3.00024 
L 356.99976 3.00024 
" style="fill:none;stroke:#ffffff;stroke-linecap:square;stroke-linejoin:miter;stroke-width:1.25;"/>
   </g>
   <g id="legend_1">
    <g id="patch_7">
     <path d="M 215.89976 179.799291 
L 349.99976 179.799291 
Q 351.99976 179.799291 351.99976 177.799291 
L 351.99976 80.999291 
Q 351.99976 78.999291 349.99976 78.999291 
L 215.89976 78.999291 
Q 213.89976 78.999291 213.89976 80.999291 
L 213.89976 177.799291 
Q 213.89976 179.799291 215.89976 179.799291 
z
" style="fill:#eaeaf2;opacity:0.8;stroke:#cccccc;stroke-linejoin:miter;"/>
    </g>
    <g id="line2d_16">
     <path d="M 217.89976 88.599291 
L 237.89976 88.599291 
" style="fill:none;stroke:#1a1a1a;stroke-dasharray:1.5,2.475;stroke-dashoffset:0;stroke-width:1.5;"/>
    </g>
    <g id="line2d_17"/>
    <g id="text_15">
     <!-- 5PLF ($\rho$=0.97 kg/m$^3$) -->
     <g style="fill:#262626;" transform="translate(245.89976 92.099291)scale(0.1 -0.1)">
      <defs>
       <path d="M 7.71875 0 
L 7.71875 71.578125 
L 34.71875 71.578125 
Q 41.84375 71.578125 45.609375 70.90625 
Q 50.875 70.015625 54.4375 67.546875 
Q 58.015625 65.09375 60.1875 60.640625 
Q 62.359375 56.203125 62.359375 50.875 
Q 62.359375 41.75 56.546875 35.421875 
Q 50.734375 29.109375 35.546875 29.109375 
L 17.1875 29.109375 
L 17.1875 0 
z
M 17.1875 37.546875 
L 35.6875 37.546875 
Q 44.875 37.546875 48.734375 40.96875 
Q 52.59375 44.390625 52.59375 50.59375 
Q 52.59375 55.078125 50.3125 58.265625 
Q 48.046875 61.46875 44.34375 62.5 
Q 41.9375 63.140625 35.5 63.140625 
L 17.1875 63.140625 
z
" id="ArialMT-80"/>
       <path d="M 7.328125 0 
L 7.328125 71.578125 
L 16.796875 71.578125 
L 16.796875 8.453125 
L 52.046875 8.453125 
L 52.046875 0 
z
" id="ArialMT-76"/>
       <path d="M 8.203125 0 
L 8.203125 71.578125 
L 56.5 71.578125 
L 56.5 63.140625 
L 17.671875 63.140625 
L 17.671875 40.96875 
L 51.265625 40.96875 
L 51.265625 32.515625 
L 17.671875 32.515625 
L 17.671875 0 
z
" id="ArialMT-70"/>
       <path d="M 23.390625 -21.046875 
Q 16.109375 -11.859375 11.078125 0.4375 
Q 6.0625 12.75 6.0625 25.921875 
Q 6.0625 37.546875 9.8125 48.1875 
Q 14.203125 60.546875 23.390625 72.796875 
L 29.6875 72.796875 
Q 23.78125 62.640625 21.875 58.296875 
Q 18.890625 51.5625 17.1875 44.234375 
Q 15.09375 35.109375 15.09375 25.875 
Q 15.09375 2.390625 29.6875 -21.046875 
z
" id="ArialMT-40"/>
       <path d="M 18.796875 44.921875 
Q 22.703125 49.90625 30.953125 54.296875 
Q 34.1875 56 43.0625 56 
Q 53.03125 56 57.71875 48.09375 
Q 62.40625 40.1875 59.90625 27.296875 
Q 57.375 14.40625 49.609375 6.484375 
Q 41.84375 -1.421875 31.890625 -1.421875 
Q 25.875 -1.421875 22.015625 0.984375 
Q 18.171875 3.328125 16.3125 8.203125 
L 10.640625 -20.796875 
L 1.609375 -20.796875 
L 10.890625 26.8125 
Q 13.09375 38.09375 18.796875 44.921875 
z
M 50.59375 27.296875 
Q 52.484375 37.203125 49.515625 42.875 
Q 46.53125 48.484375 39.40625 48.484375 
Q 32.28125 48.484375 27.09375 42.875 
Q 21.921875 37.203125 20.015625 27.296875 
Q 18.0625 17.390625 21.046875 11.71875 
Q 24.03125 6.109375 31.15625 6.109375 
Q 38.28125 6.109375 43.453125 11.71875 
Q 48.640625 17.390625 50.59375 27.296875 
z
" id="DejaVuSans-Oblique-961"/>
       <path d="M 52.828125 42.09375 
L 5.5625 42.09375 
L 5.5625 50.296875 
L 52.828125 50.296875 
z
M 52.828125 20.359375 
L 5.5625 20.359375 
L 5.5625 28.5625 
L 52.828125 28.5625 
z
" id="ArialMT-61"/>
       <path d="M 5.46875 16.546875 
L 13.921875 17.328125 
Q 14.984375 11.375 18.015625 8.6875 
Q 21.046875 6 25.78125 6 
Q 29.828125 6 32.875 7.859375 
Q 35.9375 9.71875 37.890625 12.8125 
Q 39.84375 15.921875 41.15625 21.1875 
Q 42.484375 26.46875 42.484375 31.9375 
Q 42.484375 32.515625 42.4375 33.6875 
Q 39.796875 29.5 35.234375 26.875 
Q 30.671875 24.265625 25.34375 24.265625 
Q 16.453125 24.265625 10.296875 30.703125 
Q 4.15625 37.15625 4.15625 47.703125 
Q 4.15625 58.59375 10.578125 65.234375 
Q 17 71.875 26.65625 71.875 
Q 33.640625 71.875 39.421875 68.109375 
Q 45.21875 64.359375 48.21875 57.390625 
Q 51.21875 50.4375 51.21875 37.25 
Q 51.21875 23.53125 48.234375 15.40625 
Q 45.265625 7.28125 39.375 3.03125 
Q 33.5 -1.21875 25.59375 -1.21875 
Q 17.1875 -1.21875 11.859375 3.4375 
Q 6.546875 8.109375 5.46875 16.546875 
z
M 41.453125 48.140625 
Q 41.453125 55.71875 37.421875 60.15625 
Q 33.40625 64.59375 27.734375 64.59375 
Q 21.875 64.59375 17.53125 59.8125 
Q 13.1875 55.03125 13.1875 47.40625 
Q 13.1875 40.578125 17.3125 36.296875 
Q 21.4375 32.03125 27.484375 32.03125 
Q 33.59375 32.03125 37.515625 36.296875 
Q 41.453125 40.578125 41.453125 48.140625 
z
" id="ArialMT-57"/>
       <path d="M 4.734375 62.203125 
L 4.734375 70.65625 
L 51.078125 70.65625 
L 51.078125 63.8125 
Q 44.234375 56.546875 37.515625 44.484375 
Q 30.8125 32.421875 27.15625 19.671875 
Q 24.515625 10.6875 23.78125 0 
L 14.75 0 
Q 14.890625 8.453125 18.0625 20.40625 
Q 21.234375 32.375 27.171875 43.484375 
Q 33.109375 54.59375 39.796875 62.203125 
z
" id="ArialMT-55"/>
       <path d="M 6.640625 0 
L 6.640625 71.578125 
L 15.4375 71.578125 
L 15.4375 30.765625 
L 36.234375 51.859375 
L 47.609375 51.859375 
L 27.78125 32.625 
L 49.609375 0 
L 38.765625 0 
L 21.625 26.515625 
L 15.4375 20.5625 
L 15.4375 0 
z
" id="ArialMT-107"/>
       <path d="M 4.984375 -4.296875 
L 13.53125 -5.5625 
Q 14.0625 -9.515625 16.5 -11.328125 
Q 19.78125 -13.765625 25.4375 -13.765625 
Q 31.546875 -13.765625 34.859375 -11.328125 
Q 38.1875 -8.890625 39.359375 -4.5 
Q 40.046875 -1.8125 39.984375 6.78125 
Q 34.234375 0 25.640625 0 
Q 14.9375 0 9.078125 7.71875 
Q 3.21875 15.4375 3.21875 26.21875 
Q 3.21875 33.640625 5.90625 39.90625 
Q 8.59375 46.1875 13.6875 49.609375 
Q 18.796875 53.03125 25.6875 53.03125 
Q 34.859375 53.03125 40.828125 45.609375 
L 40.828125 51.859375 
L 48.921875 51.859375 
L 48.921875 7.03125 
Q 48.921875 -5.078125 46.453125 -10.125 
Q 44 -15.1875 38.640625 -18.109375 
Q 33.296875 -21.046875 25.484375 -21.046875 
Q 16.21875 -21.046875 10.5 -16.875 
Q 4.78125 -12.703125 4.984375 -4.296875 
z
M 12.25 26.859375 
Q 12.25 16.65625 16.296875 11.96875 
Q 20.359375 7.28125 26.46875 7.28125 
Q 32.515625 7.28125 36.609375 11.9375 
Q 40.71875 16.609375 40.71875 26.5625 
Q 40.71875 36.078125 36.5 40.90625 
Q 32.28125 45.75 26.3125 45.75 
Q 20.453125 45.75 16.34375 40.984375 
Q 12.25 36.234375 12.25 26.859375 
z
" id="ArialMT-103"/>
       <path d="M 40.578125 39.3125 
Q 47.65625 37.796875 51.625 33 
Q 55.609375 28.21875 55.609375 21.1875 
Q 55.609375 10.40625 48.1875 4.484375 
Q 40.765625 -1.421875 27.09375 -1.421875 
Q 22.515625 -1.421875 17.65625 -0.515625 
Q 12.796875 0.390625 7.625 2.203125 
L 7.625 11.71875 
Q 11.71875 9.328125 16.59375 8.109375 
Q 21.484375 6.890625 26.8125 6.890625 
Q 36.078125 6.890625 40.9375 10.546875 
Q 45.796875 14.203125 45.796875 21.1875 
Q 45.796875 27.640625 41.28125 31.265625 
Q 36.765625 34.90625 28.71875 34.90625 
L 20.21875 34.90625 
L 20.21875 43.015625 
L 29.109375 43.015625 
Q 36.375 43.015625 40.234375 45.921875 
Q 44.09375 48.828125 44.09375 54.296875 
Q 44.09375 59.90625 40.109375 62.90625 
Q 36.140625 65.921875 28.71875 65.921875 
Q 24.65625 65.921875 20.015625 65.03125 
Q 15.375 64.15625 9.8125 62.3125 
L 9.8125 71.09375 
Q 15.4375 72.65625 20.34375 73.4375 
Q 25.25 74.21875 29.59375 74.21875 
Q 40.828125 74.21875 47.359375 69.109375 
Q 53.90625 64.015625 53.90625 55.328125 
Q 53.90625 49.265625 50.4375 45.09375 
Q 46.96875 40.921875 40.578125 39.3125 
z
" id="DejaVuSans-51"/>
       <path d="M 12.359375 -21.046875 
L 6.0625 -21.046875 
Q 20.65625 2.390625 20.65625 25.875 
Q 20.65625 35.0625 18.5625 44.09375 
Q 16.890625 51.421875 13.921875 58.15625 
Q 12.015625 62.546875 6.0625 72.796875 
L 12.359375 72.796875 
Q 21.53125 60.546875 25.921875 48.1875 
Q 29.6875 37.546875 29.6875 25.921875 
Q 29.6875 12.75 24.625 0.4375 
Q 19.578125 -11.859375 12.359375 -21.046875 
z
" id="ArialMT-41"/>
      </defs>
      <use transform="translate(0 0.765625)" xlink:href="#ArialMT-53"/>
      <use transform="translate(55.615234 0.765625)" xlink:href="#ArialMT-80"/>
      <use transform="translate(122.314453 0.765625)" xlink:href="#ArialMT-76"/>
      <use transform="translate(177.929688 0.765625)" xlink:href="#ArialMT-70"/>
      <use transform="translate(239.013672 0.765625)" xlink:href="#ArialMT-32"/>
      <use transform="translate(266.796875 0.765625)" xlink:href="#ArialMT-40"/>
      <use transform="translate(300.097656 0.765625)" xlink:href="#DejaVuSans-Oblique-961"/>
      <use transform="translate(363.574219 0.765625)" xlink:href="#ArialMT-61"/>
      <use transform="translate(421.972656 0.765625)" xlink:href="#ArialMT-48"/>
      <use transform="translate(477.587891 0.765625)" xlink:href="#ArialMT-46"/>
      <use transform="translate(505.371094 0.765625)" xlink:href="#ArialMT-57"/>
      <use transform="translate(560.986328 0.765625)" xlink:href="#ArialMT-55"/>
      <use transform="translate(616.601562 0.765625)" xlink:href="#ArialMT-32"/>
      <use transform="translate(644.384766 0.765625)" xlink:href="#ArialMT-107"/>
      <use transform="translate(694.384766 0.765625)" xlink:href="#ArialMT-103"/>
      <use transform="translate(750 0.765625)" xlink:href="#ArialMT-47"/>
      <use transform="translate(777.783203 0.765625)" xlink:href="#ArialMT-109"/>
      <use transform="translate(862.041016 39.046875)scale(0.7)" xlink:href="#DejaVuSans-51"/>
      <use transform="translate(909.311523 0.765625)" xlink:href="#ArialMT-41"/>
     </g>
    </g>
    <g id="line2d_18">
     <path d="M 217.89976 104.899291 
L 237.89976 104.899291 
" style="fill:none;stroke:#ff8c00;stroke-dasharray:5.55,2.4;stroke-dashoffset:0;stroke-width:1.5;"/>
    </g>
    <g id="line2d_19"/>
    <g id="text_16">
     <!-- 5PLF ($\rho$=1.12 kg/m$^3$) -->
     <g style="fill:#262626;" transform="translate(245.89976 108.399291)scale(0.1 -0.1)">
      <use transform="translate(0 0.765625)" xlink:href="#ArialMT-53"/>
      <use transform="translate(55.615234 0.765625)" xlink:href="#ArialMT-80"/>
      <use transform="translate(122.314453 0.765625)" xlink:href="#ArialMT-76"/>
      <use transform="translate(177.929688 0.765625)" xlink:href="#ArialMT-70"/>
      <use transform="translate(239.013672 0.765625)" xlink:href="#ArialMT-32"/>
      <use transform="translate(266.796875 0.765625)" xlink:href="#ArialMT-40"/>
      <use transform="translate(300.097656 0.765625)" xlink:href="#DejaVuSans-Oblique-961"/>
      <use transform="translate(363.574219 0.765625)" xlink:href="#ArialMT-61"/>
      <use transform="translate(421.972656 0.765625)" xlink:href="#ArialMT-49"/>
      <use transform="translate(477.587891 0.765625)" xlink:href="#ArialMT-46"/>
      <use transform="translate(505.371094 0.765625)" xlink:href="#ArialMT-49"/>
      <use transform="translate(560.986328 0.765625)" xlink:href="#ArialMT-50"/>
      <use transform="translate(616.601562 0.765625)" xlink:href="#ArialMT-32"/>
      <use transform="translate(644.384766 0.765625)" xlink:href="#ArialMT-107"/>
      <use transform="translate(694.384766 0.765625)" xlink:href="#ArialMT-103"/>
      <use transform="translate(750 0.765625)" xlink:href="#ArialMT-47"/>
      <use transform="translate(777.783203 0.765625)" xlink:href="#ArialMT-109"/>
      <use transform="translate(862.041016 39.046875)scale(0.7)" xlink:href="#DejaVuSans-51"/>
      <use transform="translate(909.311523 0.765625)" xlink:href="#ArialMT-41"/>
     </g>
    </g>
    <g id="line2d_20">
     <path d="M 217.89976 121.199291 
L 237.89976 121.199291 
" style="fill:none;stroke:#4c72b0;stroke-linecap:round;stroke-width:1.5;"/>
    </g>
    <g id="line2d_21"/>
    <g id="text_17">
     <!-- 5PLF ($\rho$=1.27 kg/m$^3$) -->
     <g style="fill:#262626;" transform="translate(245.89976 124.699291)scale(0.1 -0.1)">
      <use transform="translate(0 0.765625)" xlink:href="#ArialMT-53"/>
      <use transform="translate(55.615234 0.765625)" xlink:href="#ArialMT-80"/>
      <use transform="translate(122.314453 0.765625)" xlink:href="#ArialMT-76"/>
      <use transform="translate(177.929688 0.765625)" xlink:href="#ArialMT-70"/>
      <use transform="translate(239.013672 0.765625)" xlink:href="#ArialMT-32"/>
      <use transform="translate(266.796875 0.765625)" xlink:href="#ArialMT-40"/>
      <use transform="translate(300.097656 0.765625)" xlink:href="#DejaVuSans-Oblique-961"/>
      <use transform="translate(363.574219 0.765625)" xlink:href="#ArialMT-61"/>
      <use transform="translate(421.972656 0.765625)" xlink:href="#ArialMT-49"/>
      <use transform="translate(477.587891 0.765625)" xlink:href="#ArialMT-46"/>
      <use transform="translate(505.371094 0.765625)" xlink:href="#ArialMT-50"/>
      <use transform="translate(560.986328 0.765625)" xlink:href="#ArialMT-55"/>
      <use transform="translate(616.601562 0.765625)" xlink:href="#ArialMT-32"/>
      <use transform="translate(644.384766 0.765625)" xlink:href="#ArialMT-107"/>
      <use transform="translate(694.384766 0.765625)" xlink:href="#ArialMT-103"/>
      <use transform="translate(750 0.765625)" xlink:href="#ArialMT-47"/>
      <use transform="translate(777.783203 0.765625)" xlink:href="#ArialMT-109"/>
      <use transform="translate(862.041016 39.046875)scale(0.7)" xlink:href="#DejaVuSans-51"/>
      <use transform="translate(909.311523 0.765625)" xlink:href="#ArialMT-41"/>
     </g>
    </g>
    <g id="PathCollection_4">
     <g>
      <use style="fill:#c44e52;stroke:#c44e52;stroke-width:1.5;" x="227.89976" xlink:href="#mf0f9c03487" y="138.374291"/>
     </g>
    </g>
    <g id="text_18">
     <!-- Mfr-PC ($\rho$=0.97 kg/m$^3$) -->
     <g style="fill:#262626;" transform="translate(245.89976 140.999291)scale(0.1 -0.1)">
      <defs>
       <path d="M 7.421875 0 
L 7.421875 71.578125 
L 21.6875 71.578125 
L 38.625 20.90625 
Q 40.96875 13.8125 42.046875 10.296875 
Q 43.265625 14.203125 45.84375 21.78125 
L 62.984375 71.578125 
L 75.734375 71.578125 
L 75.734375 0 
L 66.609375 0 
L 66.609375 59.90625 
L 45.796875 0 
L 37.25 0 
L 16.546875 60.9375 
L 16.546875 0 
z
" id="ArialMT-77"/>
       <path d="M 8.6875 0 
L 8.6875 45.015625 
L 0.921875 45.015625 
L 0.921875 51.859375 
L 8.6875 51.859375 
L 8.6875 57.375 
Q 8.6875 62.59375 9.625 65.140625 
Q 10.890625 68.5625 14.078125 70.671875 
Q 17.28125 72.796875 23.046875 72.796875 
Q 26.765625 72.796875 31.25 71.921875 
L 29.9375 64.265625 
Q 27.203125 64.75 24.75 64.75 
Q 20.75 64.75 19.09375 63.03125 
Q 17.4375 61.328125 17.4375 56.640625 
L 17.4375 51.859375 
L 27.546875 51.859375 
L 27.546875 45.015625 
L 17.4375 45.015625 
L 17.4375 0 
z
" id="ArialMT-102"/>
       <path d="M 3.171875 21.484375 
L 3.171875 30.328125 
L 30.171875 30.328125 
L 30.171875 21.484375 
z
" id="ArialMT-45"/>
       <path d="M 58.796875 25.09375 
L 68.265625 22.703125 
Q 65.28125 11.03125 57.546875 4.90625 
Q 49.8125 -1.21875 38.625 -1.21875 
Q 27.046875 -1.21875 19.796875 3.484375 
Q 12.546875 8.203125 8.765625 17.140625 
Q 4.984375 26.078125 4.984375 36.328125 
Q 4.984375 47.515625 9.25 55.828125 
Q 13.53125 64.15625 21.40625 68.46875 
Q 29.296875 72.796875 38.765625 72.796875 
Q 49.515625 72.796875 56.828125 67.328125 
Q 64.15625 61.859375 67.046875 51.953125 
L 57.71875 49.75 
Q 55.21875 57.5625 50.484375 61.125 
Q 45.75 64.703125 38.578125 64.703125 
Q 30.328125 64.703125 24.78125 60.734375 
Q 19.234375 56.78125 16.984375 50.109375 
Q 14.75 43.453125 14.75 36.375 
Q 14.75 27.25 17.40625 20.4375 
Q 20.0625 13.625 25.671875 10.25 
Q 31.296875 6.890625 37.84375 6.890625 
Q 45.796875 6.890625 51.3125 11.46875 
Q 56.84375 16.0625 58.796875 25.09375 
z
" id="ArialMT-67"/>
      </defs>
      <use transform="translate(0 0.765625)" xlink:href="#ArialMT-77"/>
      <use transform="translate(83.300781 0.765625)" xlink:href="#ArialMT-102"/>
      <use transform="translate(111.083984 0.765625)" xlink:href="#ArialMT-114"/>
      <use transform="translate(144.384766 0.765625)" xlink:href="#ArialMT-45"/>
      <use transform="translate(177.685547 0.765625)" xlink:href="#ArialMT-80"/>
      <use transform="translate(244.384766 0.765625)" xlink:href="#ArialMT-67"/>
      <use transform="translate(316.601562 0.765625)" xlink:href="#ArialMT-32"/>
      <use transform="translate(344.384766 0.765625)" xlink:href="#ArialMT-40"/>
      <use transform="translate(377.685547 0.765625)" xlink:href="#DejaVuSans-Oblique-961"/>
      <use transform="translate(441.162109 0.765625)" xlink:href="#ArialMT-61"/>
      <use transform="translate(499.560547 0.765625)" xlink:href="#ArialMT-48"/>
      <use transform="translate(555.175781 0.765625)" xlink:href="#ArialMT-46"/>
      <use transform="translate(582.958984 0.765625)" xlink:href="#ArialMT-57"/>
      <use transform="translate(638.574219 0.765625)" xlink:href="#ArialMT-55"/>
      <use transform="translate(694.189453 0.765625)" xlink:href="#ArialMT-32"/>
      <use transform="translate(721.972656 0.765625)" xlink:href="#ArialMT-107"/>
      <use transform="translate(771.972656 0.765625)" xlink:href="#ArialMT-103"/>
      <use transform="translate(827.587891 0.765625)" xlink:href="#ArialMT-47"/>
      <use transform="translate(855.371094 0.765625)" xlink:href="#ArialMT-109"/>
      <use transform="translate(939.628906 39.046875)scale(0.7)" xlink:href="#DejaVuSans-51"/>
      <use transform="translate(986.899414 0.765625)" xlink:href="#ArialMT-41"/>
     </g>
    </g>
    <g id="PathCollection_5">
     <g>
      <use style="fill:#55a868;stroke:#55a868;stroke-width:1.5;" x="227.89976" xlink:href="#m9bde9fe31b" y="154.674291"/>
     </g>
    </g>
    <g id="text_19">
     <!-- Mfr-PC ($\rho$=1.12 kg/m$^3$) -->
     <g style="fill:#262626;" transform="translate(245.89976 157.299291)scale(0.1 -0.1)">
      <use transform="translate(0 0.765625)" xlink:href="#ArialMT-77"/>
      <use transform="translate(83.300781 0.765625)" xlink:href="#ArialMT-102"/>
      <use transform="translate(111.083984 0.765625)" xlink:href="#ArialMT-114"/>
      <use transform="translate(144.384766 0.765625)" xlink:href="#ArialMT-45"/>
      <use transform="translate(177.685547 0.765625)" xlink:href="#ArialMT-80"/>
      <use transform="translate(244.384766 0.765625)" xlink:href="#ArialMT-67"/>
      <use transform="translate(316.601562 0.765625)" xlink:href="#ArialMT-32"/>
      <use transform="translate(344.384766 0.765625)" xlink:href="#ArialMT-40"/>
      <use transform="translate(377.685547 0.765625)" xlink:href="#DejaVuSans-Oblique-961"/>
      <use transform="translate(441.162109 0.765625)" xlink:href="#ArialMT-61"/>
      <use transform="translate(499.560547 0.765625)" xlink:href="#ArialMT-49"/>
      <use transform="translate(555.175781 0.765625)" xlink:href="#ArialMT-46"/>
      <use transform="translate(582.958984 0.765625)" xlink:href="#ArialMT-49"/>
      <use transform="translate(638.574219 0.765625)" xlink:href="#ArialMT-50"/>
      <use transform="translate(694.189453 0.765625)" xlink:href="#ArialMT-32"/>
      <use transform="translate(721.972656 0.765625)" xlink:href="#ArialMT-107"/>
      <use transform="translate(771.972656 0.765625)" xlink:href="#ArialMT-103"/>
      <use transform="translate(827.587891 0.765625)" xlink:href="#ArialMT-47"/>
      <use transform="translate(855.371094 0.765625)" xlink:href="#ArialMT-109"/>
      <use transform="translate(939.628906 39.046875)scale(0.7)" xlink:href="#DejaVuSans-51"/>
      <use transform="translate(986.899414 0.765625)" xlink:href="#ArialMT-41"/>
     </g>
    </g>
    <g id="PathCollection_6">
     <path d="M 227.89976 172.974291 
C 228.430166 172.974291 228.93892 172.763559 229.313974 172.388505 
C 229.689027 172.013451 229.89976 171.504697 229.89976 170.974291 
C 229.89976 170.443885 229.689027 169.935132 229.313974 169.560078 
C 228.93892 169.185024 228.430166 168.974291 227.89976 168.974291 
C 227.369354 168.974291 226.8606 169.185024 226.485546 169.560078 
C 226.110493 169.935132 225.89976 170.443885 225.89976 170.974291 
C 225.89976 171.504697 226.110493 172.013451 226.485546 172.388505 
C 226.8606 172.763559 227.369354 172.974291 227.89976 172.974291 
z
" style="fill:none;stroke:#ff00ff;"/>
    </g>
    <g id="text_20">
     <!-- Mfr-PC ($\rho$=1.27 kg/m$^3$) -->
     <g style="fill:#262626;" transform="translate(245.89976 173.599291)scale(0.1 -0.1)">
      <use transform="translate(0 0.765625)" xlink:href="#ArialMT-77"/>
      <use transform="translate(83.300781 0.765625)" xlink:href="#ArialMT-102"/>
      <use transform="translate(111.083984 0.765625)" xlink:href="#ArialMT-114"/>
      <use transform="translate(144.384766 0.765625)" xlink:href="#ArialMT-45"/>
      <use transform="translate(177.685547 0.765625)" xlink:href="#ArialMT-80"/>
      <use transform="translate(244.384766 0.765625)" xlink:href="#ArialMT-67"/>
      <use transform="translate(316.601562 0.765625)" xlink:href="#ArialMT-32"/>
      <use transform="translate(344.384766 0.765625)" xlink:href="#ArialMT-40"/>
      <use transform="translate(377.685547 0.765625)" xlink:href="#DejaVuSans-Oblique-961"/>
      <use transform="translate(441.162109 0.765625)" xlink:href="#ArialMT-61"/>
      <use transform="translate(499.560547 0.765625)" xlink:href="#ArialMT-49"/>
      <use transform="translate(555.175781 0.765625)" xlink:href="#ArialMT-46"/>
      <use transform="translate(582.958984 0.765625)" xlink:href="#ArialMT-50"/>
      <use transform="translate(638.574219 0.765625)" xlink:href="#ArialMT-55"/>
      <use transform="translate(694.189453 0.765625)" xlink:href="#ArialMT-32"/>
      <use transform="translate(721.972656 0.765625)" xlink:href="#ArialMT-107"/>
      <use transform="translate(771.972656 0.765625)" xlink:href="#ArialMT-103"/>
      <use transform="translate(827.587891 0.765625)" xlink:href="#ArialMT-47"/>
      <use transform="translate(855.371094 0.765625)" xlink:href="#ArialMT-109"/>
      <use transform="translate(939.628906 39.046875)scale(0.7)" xlink:href="#DejaVuSans-51"/>
      <use transform="translate(986.899414 0.765625)" xlink:href="#ArialMT-41"/>
     </g>
    </g>
   </g>
  </g>
 </g>
 <defs>
  <clipPath id="pc931ce0cc7">
   <rect height="181.799051" width="314.235145" x="42.764615" y="3.00024"/>
  </clipPath>
 </defs>
</svg>
